<svg id="ecoflightlogo2" xmlns="http://www.w3.org/2000/svg" xmlns:xlink="http://www.w3.org/1999/xlink" width="278.971" height="156.439" viewBox="0 0 278.971 156.439">
  <defs>
    <clipPath id="clip-path">
      <rect id="Rectangle_14" data-name="Rectangle 14" width="278.971" height="156.439" fill="none"/>
    </clipPath>
  </defs>
  <g id="Group_15" data-name="Group 15" clip-path="url(#clip-path)">
    <path id="Path_40" data-name="Path 40" d="M105.685,43.221l6.5-7.163a2.9,2.9,0,0,1,2.459-.927l-2.333,6.857a3.526,3.526,0,0,0,1.894,4.354l5.91,2.64.374,1.152a3.531,3.531,0,0,0,3.91,2.393l2.664-.423a.878.878,0,0,1,1.015.9l-.165,3.971-5.987,7.6a2.346,2.346,0,0,1-2.3.852l-2.988-1.382-.034.088-7.3-3.323a11.114,11.114,0,0,1-3.625-17.591m-72.96,77.621h-14.7v6.238h14.39v5.569H18.022v6.772h14.7v5.569H11.7V115.274H32.725ZM54.331,139.91a8.036,8.036,0,0,0,6.95-4.321l5.435,2.631a13.612,13.612,0,0,1-12.385,7.306c-8.955,0-15.861-6.238-15.861-15.371,0-9.177,6.906-15.37,15.861-15.37a13.5,13.5,0,0,1,12.385,7.263l-5.435,2.673a8.039,8.039,0,0,0-6.95-4.322c-5.435,0-9.356,4.143-9.356,9.757s3.921,9.756,9.356,9.756m32.52,5.615c-9,0-15.548-6.417-15.548-15.371s6.549-15.37,15.548-15.37c8.955,0,15.5,6.415,15.5,15.37s-6.549,15.371-15.5,15.371m43.214-24.683h-14.7v6.238h14.39v5.569h-14.39V144.99h-6.326V115.274h21.029Zm25.3,24.148H136.433V115.274H142.8v24.148h12.564Zm12.828,0h-6.326V115.274H168.2Zm35.15-5.035a16.433,16.433,0,0,1-12.608,5.57c-8.731,0-15.86-6.015-15.86-15.371,0-9.4,7.129-15.37,15.86-15.37a13.873,13.873,0,0,1,12.252,6.639l-5.213,2.851a8.539,8.539,0,0,0-7.039-3.877c-5.434,0-9.356,4.143-9.356,9.757s3.922,9.756,9.356,9.756a9.894,9.894,0,0,0,6.282-2.271v-3.564h-7.842V128.55h14.167Zm33.991,5.035h-6.37V132.471H216.933V144.99h-6.326V115.274h6.326v11.672h14.035V115.274h6.37Zm29.937-24.148H258.63V144.99h-6.371V120.842h-8.688v-5.569h23.7Zm4.218-16.269-3.717-4.865-28.3-33.577a4.7,4.7,0,0,0-6.326-.726q-2.562,1.859-5.5,3.756-2.853,1.833-5.9,3.587a3.784,3.784,0,0,0-.343,6.378,19.888,19.888,0,0,0,7.383,3.077l17.985,3.505.976,1.137a4.421,4.421,0,0,1-2.364,7.188l-19.194.28-2.291.005-.005.028-.24.006h-.034l-8.856.132c-.514-.11-46.464.686-46.464.686a2.166,2.166,0,0,1-.074-4.128c1.181-.4,2.284-.811,3.266-1.108,16.9-5.121,55.538-22.771,71.678-42.794l-2.353-1.313C221.144,66.41,179.43,79.286,169.072,82.5c-12.316,3.787-24.791,7.092-37.346,10.1q-7.237,1.72-14.52,3.323l-.673.148-10.9.166h-.006l-11.585.183-.034.006-10.717.159-.964.023L77,96.585l-.012.068h-.2l-.006.012h-.154v.011l-7.617-.045-14.77.222a31.315,31.315,0,0,0-9.792,3.7l-.16.1a7.386,7.386,0,0,1-8.216-.474,7.926,7.926,0,0,1-2.735-3.021,26.589,26.589,0,0,1,3.854-23.934L55.5,48.345a4.67,4.67,0,0,1,3.278-1.868L57.49,66.946a2.614,2.614,0,0,0,3.568,2.6l13.029-5.151a3.358,3.358,0,0,1,3.626.766,3.28,3.28,0,0,0,1.885.874,2.5,2.5,0,0,0,.3.034l10.089.759a4.82,4.82,0,0,1,3.487,1.914l6.9,9.2a2.893,2.893,0,0,0,2.4,1.153l20.034-.559a32,32,0,0,1,14.3,2.935l4.9,2.267a2.005,2.005,0,0,0,2.661-.989l1.325-2.905A2.022,2.022,0,0,0,145,77.173v-.012a15.7,15.7,0,0,1-5.984-23.625c8.8-11.831,20.886-27.7,29.387-37.462a3.32,3.32,0,0,1,5.67,3.168l-1.353,4.392a1.819,1.819,0,0,0,1.918,2.351l6.046-.588a2.063,2.063,0,0,1,2.239,2.313l-.171,1.3a3.448,3.448,0,0,0,2.785,3.838l5.653,1.044a.978.978,0,0,1,.45,1.713l-4.818,4.036a1.173,1.173,0,0,0,.844,2.068l3.517-.263a1.391,1.391,0,0,1,1.462,1.719l-3.42,14.23a2.826,2.826,0,0,0,2.849,3.482l8.33-.3a10.322,10.322,0,0,1,4.928,1.051,6.773,6.773,0,0,0,6.023.039c3.083-1.553,5.961-3.129,8.69-4.763l.667-.4a6.842,6.842,0,0,0,1.622-10.311L185.768,3.633a10.408,10.408,0,0,0-16.084.343L145.292,34.921a10.976,10.976,0,0,1-15.067,2.1L120.289,29.8A10.129,10.129,0,0,0,106.838,31.2L91.519,48.053a6.115,6.115,0,0,1-7.051,1.457l-20.28-9.233a11.958,11.958,0,0,0-14.52,3.786L10.345,97.5,7.48,101.472a.092.092,0,0,0-.017.023,6.091,6.091,0,0,1-2.535,1.621A7.836,7.836,0,0,0,0,110.339v38.3a7.8,7.8,0,0,0,7.8,7.8H271.172a7.8,7.8,0,0,0,7.8-7.8V112.047a7.478,7.478,0,0,0-7.479-7.474" transform="translate(0 0)" fill="#29333d"/>
    <path id="Path_41" data-name="Path 41" d="M266.887,38.679l-1.426,2.115a1.739,1.739,0,0,1-2.413.47l-7.942-5.354a1.769,1.769,0,0,0-2.428.448,44.7,44.7,0,0,1-7.611,8.442c-.04.047-.072.088-.113.136l1.13.759,1.824,1.234a1.732,1.732,0,0,1,.471,2.407l-.709,1.053a1.733,1.733,0,0,1-2.407.472L242.3,48.869l-.523-.351L238.94,46.6l-4.361-2.936-.206-.142a1.727,1.727,0,0,1-.464-2.406l.709-1.053a1.74,1.74,0,0,1,2.408-.472l1.769,1.2,2.6,1.744a114.034,114.034,0,0,1,5-10.6,1.762,1.762,0,0,0-.577-2.279l-8.548-5.763a1.737,1.737,0,0,1-.472-2.406l1.426-2.115a1.741,1.741,0,0,1,2.415-.471l10.608,7.14,3.327-2.8c.023-.02.053-.025.076-.044l-3.685-2.478a.868.868,0,1,1,.968-1.44l4.511,3.038c.407-.4,1.069-.747,1.479-.509.43.255.409,1.092.21,1.642l4.195,2.827a.873.873,0,1,1-.976,1.447l-3.547-2.393c-.019.056-.016.108-.035.164l-1.51,3.943,10.153,6.832a1.747,1.747,0,0,1,.471,2.414" transform="translate(1.213 0.097)" fill="#29333d"/>
    <path id="Path_42" data-name="Path 42" d="M86.45,119.774c-5.525,0-9.045,4.189-9.045,9.757,0,5.525,3.52,9.756,9.045,9.756,5.48,0,9-4.232,9-9.756,0-5.569-3.519-9.757-9-9.757" transform="translate(0.402 0.622)" fill="#29333d"/>
  </g>
</svg>
