<svg id="hachlogo" xmlns="http://www.w3.org/2000/svg" xmlns:xlink="http://www.w3.org/1999/xlink" width="336.881" height="101.236" viewBox="0 0 336.881 101.236">
  <defs>
    <clipPath id="clip-path">
      <rect id="Rectangle_17" data-name="Rectangle 17" width="336.881" height="101.236" transform="translate(0 0)" fill="none"/>
    </clipPath>
  </defs>
  <g id="Group_17" data-name="Group 17" clip-path="url(#clip-path)">
    <path id="Path_43" data-name="Path 43" d="M31.992,65.3,46.128,52.76a4.476,4.476,0,0,1-.435-1.529H34.358a.6.6,0,0,1-.613-.6.612.612,0,0,1,.613-.613H45.693a4.651,4.651,0,0,1,.435-1.544l-14.556-12.9a8.594,8.594,0,0,0-14.251,6.474,6.664,6.664,0,0,0,.047.772,7.832,7.832,0,0,0,0,15.6,6.945,6.945,0,0,0-.047.789,8.579,8.579,0,0,0,14.251,6.456Z" fill="#29333d"/>
    <path id="Path_44" data-name="Path 44" d="M69.67,35.578l-.417.372L55.1,48.51a4,4,0,0,1,.435,1.513H66.884a.613.613,0,0,1,.613.612.6.6,0,0,1-.613.6H55.532a4.414,4.414,0,0,1-.435,1.532L69.67,65.675A8.594,8.594,0,0,0,83.921,59.2a6.686,6.686,0,0,0-.047-.774,7.831,7.831,0,0,0,0-15.6,7,7,0,0,0,.047-.79A8.581,8.581,0,0,0,69.67,35.578" fill="#29333d"/>
    <path id="Path_45" data-name="Path 45" d="M33.071,35.063,46.9,47.333a4.857,4.857,0,0,1,3.108-1.625V34.372a.609.609,0,0,1,.612-.612.6.6,0,0,1,.595.612V45.708a4.935,4.935,0,0,1,3.124,1.625l13.832-12.27a8.329,8.329,0,0,0-5.136-14.9,8.227,8.227,0,0,0-3.656.856,8.825,8.825,0,0,0-17.518,0,8.251,8.251,0,0,0-3.672-.856,8.328,8.328,0,0,0-5.12,14.9" fill="#29333d"/>
    <path id="Path_46" data-name="Path 46" d="M68.174,66.206,54.325,53.919a4.868,4.868,0,0,1-3.108,1.627V66.9a.583.583,0,0,1-.6.6.6.6,0,0,1-.611-.6V55.546a5.007,5.007,0,0,1-3.108-1.61L33.07,66.206a8.327,8.327,0,0,0,8.792,14.041,8.825,8.825,0,0,0,17.518,0,8.254,8.254,0,0,0,3.657.855,8.33,8.33,0,0,0,5.137-14.9" fill="#29333d"/>
    <path id="Path_47" data-name="Path 47" d="M53.569,48.025a3.8,3.8,0,0,0-2.352-1.287,3.489,3.489,0,0,0-.595-.048,3.693,3.693,0,0,0-.612.048,3.842,3.842,0,0,0-2.336,1.287,3.729,3.729,0,0,0-.739,1.177,3.382,3.382,0,0,0-.211.82,3.708,3.708,0,0,0-.048.6,3.88,3.88,0,0,0,.048.611,4.413,4.413,0,0,0,.211.807,3.872,3.872,0,0,0,.739,1.208,3.923,3.923,0,0,0,2.336,1.272,4.046,4.046,0,0,0,.612.048,3.915,3.915,0,0,0,3.671-2.513,3.485,3.485,0,0,0,.226-.822,3.88,3.88,0,0,0,.048-.611,3.708,3.708,0,0,0-.048-.6,3.265,3.265,0,0,0-.211-.805,3.4,3.4,0,0,0-.739-1.192" fill="#29333d"/>
    <path id="Path_48" data-name="Path 48" d="M50.619,0A50.618,50.618,0,1,0,101.237,50.62,50.677,50.677,0,0,0,50.619,0M93.185,50.62A42.566,42.566,0,1,1,50.619,8.051,42.614,42.614,0,0,1,93.185,50.62" fill="#29333d"/>
    <path id="Path_49" data-name="Path 49" d="M322.9,81.924H326.1a1.305,1.305,0,0,1,.884.241,1.1,1.1,0,0,1,.255.835v.764H321.5v-.743c0-.451.09-.754.262-.879a2.012,2.012,0,0,1,1.143-.218m9.676-1.619c-1.266.222-2.566.467-3.869.727a2.837,2.837,0,0,0-2.631-1.227H322.7a2.833,2.833,0,0,0-3.318,3.216v2.842h17.5v-2.1h-7.691v-.731c1.2-.215,2.407-.416,3.58-.595,1.249-.192,2.557-.379,3.882-.558l.229-.03V79.6l-.3.046c-1.326.206-2.67.428-4,.662" fill="#46525b"/>
    <path id="Path_50" data-name="Path 50" d="M332.061,73.9V75.46l-4.021-.527c-.7-.093-1.416-.183-2.147-.276.726-.086,1.444-.171,2.147-.259q1.989-.25,4.021-.5m-12.682,1.849,17.5,2.4V76.087l-2.846-.372V73.646l2.846-.373v-2.1l-17.5,2.277Z" fill="#46525b"/>
    <path id="Path_51" data-name="Path 51" d="M330.922,65.123l-11.543,1.562v2.6h17.5V67.311h-5.4c-1.15,0-2.31,0-3.448.008l8.846-1.287V64.193l-8.892-1.307c1.1,0,2.274.007,3.494.007h5.4v-2h-17.5v2.663Z" fill="#46525b"/>
    <path id="Path_52" data-name="Path 52" d="M319.379,58.5h17.5v-5.13H334.8V56.4h-5.778V54.342h-2.1V56.4H321.5V53.474h-2.12Z" fill="#46525b"/>
    <path id="Path_53" data-name="Path 53" d="M328.645,46.872h.769l-10.036,2.1v2.357h17.5V49.434h-8.894l-1.409,0L336.88,47V44.959h-17.5v1.913Z" fill="#46525b"/>
    <path id="Path_54" data-name="Path 54" d="M329.082,34.672a1.626,1.626,0,0,1,.893-.171h3.774c.729,0,1.053.261,1.053.846v.868h-5.921v-.888c0-.237.034-.541.2-.655m-2.983-.109a1.083,1.083,0,0,1,.69.169.785.785,0,0,1,.178.6v.888H321.5v-.868a.764.764,0,0,1,.193-.608,1.355,1.355,0,0,1,.842-.176Zm1.706-1.33a2.26,2.26,0,0,0-1.851-.667h-3.4a3.645,3.645,0,0,0-2.4.642,2.67,2.67,0,0,0-.775,2.139v2.969h17.5V35.347a3.034,3.034,0,0,0-.757-2.227,3.251,3.251,0,0,0-2.374-.759h-4.042a2.247,2.247,0,0,0-1.525.436,2.07,2.07,0,0,0-.377.436" fill="#46525b"/>
    <path id="Path_55" data-name="Path 55" d="M332.061,26.679v1.562l-4.021-.527q-1.052-.14-2.147-.274c.729-.088,1.446-.173,2.147-.261q1.989-.251,4.021-.5m-12.682,1.849,17.5,2.4V28.868l-2.846-.372V26.427l2.846-.373v-2.1l-17.5,2.277Z" fill="#46525b"/>
    <path id="Path_56" data-name="Path 56" d="M322.9,18.087h3.2a1.305,1.305,0,0,1,.882.24,1.1,1.1,0,0,1,.255.833v.767H321.5v-.745c0-.451.091-.755.262-.877a2.023,2.023,0,0,1,1.143-.218m13.672-2.281c-1.324.206-2.668.428-4,.662-1.266.222-2.566.467-3.866.724a2.845,2.845,0,0,0-2.634-1.224H322.7a3.418,3.418,0,0,0-2.555.815,3.4,3.4,0,0,0-.761,2.4v2.844h17.5v-2.1h-7.692V19.2c1.2-.215,2.4-.417,3.58-.6,1.244-.19,2.552-.378,3.882-.556l.23-.03V15.759Z" fill="#46525b"/>
    <path id="Path_57" data-name="Path 57" d="M112.373,77.983h6.238v8.371h11.1V77.983H140.87v8.371h11.1V14.882h-11.1v52H129.712v-52h-11.1v52h-6.238Z" fill="#29333d"/>
    <path id="Path_58" data-name="Path 58" d="M166.4,25.987h11.1V37.22H166.4ZM155.3,86.354h11.1V48.322h11.1V86.354h11.1V14.882H155.3Z" fill="#29333d"/>
    <path id="Path_59" data-name="Path 59" d="M191.94,48.323h33.421V37.357H203.118V26.217h22.243V14.884H191.94Z" fill="#29333d"/>
    <path id="Path_60" data-name="Path 60" d="M192.017,86.354h11.1V77.983H214.26v8.371h11.1v-34.7h-11.1V66.878H203.119V51.651h-11.1Z" fill="#29333d"/>
    <rect id="Rectangle_15" data-name="Rectangle 15" width="11.102" height="11.104" transform="translate(228.89 14.882)" fill="#29333d"/>
    <rect id="Rectangle_16" data-name="Rectangle 16" width="11.102" height="56.807" transform="translate(228.89 29.547)" fill="#29333d"/>
    <path id="Path_61" data-name="Path 61" d="M291.442,25.986h11.1V75.253h-11.1Zm-36.785,0h11.1V51.654h-11.1Zm-11.1,0V86.354h11.1v-23.6l14.128,23.6h44.862V14.882H280.34V75.253h-7.1l-7.48-12.5h11.1V14.882h-33.31Z" fill="#29333d"/>
  </g>
</svg>
