<svg id="mblogo" xmlns="http://www.w3.org/2000/svg" xmlns:xlink="http://www.w3.org/1999/xlink" width="377.108" height="93.707" viewBox="0 0 377.108 93.707">
  <defs>
    <clipPath id="clip-path">
      <rect id="Rectangle_21" data-name="Rectangle 21" width="377.108" height="93.707" fill="none"/>
    </clipPath>
  </defs>
  <g id="Group_19" data-name="Group 19" clip-path="url(#clip-path)">
    <path id="Path_62" data-name="Path 62" d="M48.807,110.027c-1.358-.934-2.659-1.965-4.084-2.785-7.388-4.253-14.774-8.514-22.24-12.629a4.307,4.307,0,0,1-2.581-4.49c.161-3.55.044-7.113.044-11.159,1.139.526,1.973.841,2.738,1.275,7.967,4.516,15.955,9,23.858,13.62a4.405,4.405,0,0,0,5.168.025c7.489-4.5,15.09-8.807,22.655-13.176.978-.564,1.987-1.074,3.6-1.941,0,4.785.121,9.03-.1,13.256-.044.822-1.318,1.781-2.236,2.323-7.8,4.6-15.649,9.1-23.465,13.67a29.826,29.826,0,0,0-2.715,2.011Z" transform="translate(-4.122 -16.32)" fill="#29333d"/>
    <path id="Path_63" data-name="Path 63" d="M469.153,70.1c-3.358.078-6.719.281-10.073.2-5.056-.119-7.479-2.588-7.553-7.638-.082-5.535-.019-11.072-.019-16.93l-7.248-.316v-7.2h7.116V28.961h7.49v9h10.287v7.56h-9.885V62.675l9.885.489Z" transform="translate(-92.046 -6)" fill="#29333d"/>
    <path id="Path_64" data-name="Path 64" d="M77.987,44.513c0,4.721.124,9.448-.087,14.16a4.75,4.75,0,0,1-1.862,3.407Q63.538,69.467,50.8,76.447a4.433,4.433,0,0,1-3.663-.023q-12.665-7.1-25.121-14.57a4.405,4.405,0,0,1-1.785-3.2Q20.1,44.173,20.391,29.7a4.363,4.363,0,0,1,1.862-3.119q12.526-7.342,25.262-14.325a4.349,4.349,0,0,1,3.593.051c8.351,4.686,16.647,9.472,24.84,14.424a5.13,5.13,0,0,1,2.021,3.629c.237,4.709.1,9.438.1,14.159Zm-3.763-12.85c-1.451.686-2.481,1.127-3.469,1.648C64.333,36.7,57.883,40.036,51.527,43.54a4.791,4.791,0,0,1-5.245.036c-6.35-3.515-12.8-6.847-19.222-10.238-.852-.45-1.744-.825-3.008-1.418,0,9-.016,17.383.03,25.766,0,.654.239,1.643.7,1.907,4.417,2.551,8.9,4.98,14,7.789V46.915c2.8,1.472,5.2,2.552,7.394,3.941a4.719,4.719,0,0,0,5.771.023c2.3-1.508,4.841-2.651,7.828-4.248V67.219c4.763-2.621,9.09-4.963,13.361-7.4a2.364,2.364,0,0,0,1.046-1.7c.067-8.667.046-17.335.046-26.458" transform="translate(-4.183 -2.463)" fill="#29333d"/>
    <path id="Path_65" data-name="Path 65" d="M60.215,6.865C64.4,4.4,67.963,2.2,71.649.217A3.524,3.524,0,0,1,74.5.426c8.673,4.771,17.317,9.6,25.883,14.555a4.044,4.044,0,0,1,1.609,2.945c.254,9.656.381,19.314.428,28.974a3.929,3.929,0,0,1-1.188,2.933c-3.509,2.29-7.192,4.316-11.271,6.7-.1-1.56-.224-2.665-.233-3.772-.069-8.82-.186-17.64-.121-26.459a4.387,4.387,0,0,0-2.584-4.458c-8.769-4.8-17.46-9.74-26.81-14.983" transform="translate(-12.476 0)" fill="#29333d"/>
    <path id="Path_66" data-name="Path 66" d="M11.646,56.044c-3.511-2.064-7.061-4.069-10.5-6.251A3.119,3.119,0,0,1,0,47.482c.09-9.954.242-19.908.526-29.859A3.751,3.751,0,0,1,2.2,15Q14.909,7.681,27.768.63a3.616,3.616,0,0,1,2.9-.258c3.6,1.908,7.075,4.052,11.09,6.4C40.4,7.634,39.491,8.26,38.537,8.8c-7.6,4.282-15.173,8.62-22.847,12.77a4.758,4.758,0,0,0-2.937,4.883c.153,9.731.063,19.467.063,29.2l-1.169.395" transform="translate(0 -0.035)" fill="#29333d"/>
    <path id="Path_67" data-name="Path 67" d="M389.216,26.065h7.039c0,2.232,0,4.3,0,6.367,0,2.085,0,4.171,0,5.619,4.887-.193,9.56-.579,14.227-.505,4.626.073,7.108,2.742,7.2,7.417q.162,8.65,0,17.306c-.086,4.757-2.48,7.272-7.147,7.412-4.95.147-9.912.151-14.86-.02-4.257-.147-6.8-2.467-6.851-6.676-.147-12.058-.021-24.12.01-36.181,0-.18.182-.359.386-.739m7.231,35.968h13.5V45.15h-13.5Z" transform="translate(-80.545 -5.4)" fill="#29333d"/>
    <path id="Path_68" data-name="Path 68" d="M163.079,45.8c1.381-3.26,3.834-4.066,6.976-4.065,10.942,0,11.444.437,11.444,11.257V71.907h-5.55V55.893c0-8.572,0-8.592-8.444-8.559-5.3.019-4.625-.541-4.654,4.766-.034,6.49-.008,12.977-.008,19.7h-5.516V47.545H144.407v24.29h-5.456V41.942h5.206c.109.995.209,1.905.314,2.863,5.325-4.733,14.613-4.358,18.607,1" transform="translate(-28.789 -8.599)" fill="#29333d"/>
    <path id="Path_69" data-name="Path 69" d="M332.829,57.137c0,2.832.053,5.665-.011,8.5-.1,4.287-2.191,6.4-6.434,6.447q-6.8.081-13.6,0c-4.123-.052-6.287-2.124-6.342-6.189q-.121-8.965,0-17.935c.053-3.932,2.165-6.029,6.082-6.093q7.114-.117,14.23,0c3.881.066,5.944,2.183,6.054,6.147.085,3.04.017,6.083.018,9.125m-20.6,9.128h14.8V47.542h-14.8Z" transform="translate(-63.48 -8.661)" fill="#29333d"/>
    <path id="Path_70" data-name="Path 70" d="M252.891,72.1V66.568h18.727v-7.1c-3.734,0-7.475.009-11.215,0-5.847-.014-7.611-1.73-7.638-7.41-.045-9.5.665-10.211,10.134-10.211h13.083V47.4h-17.46v6.5c3.716,0,7.456-.006,11.2,0,5.749.011,7.633,1.846,7.67,7.455.067,9.981-.7,10.75-10.677,10.75Z" transform="translate(-52.37 -8.67)" fill="#29333d"/>
    <path id="Path_71" data-name="Path 71" d="M234.185,66.617v-7.15c-3.923,0-7.779.017-11.634,0-5.362-.029-7.223-1.885-7.255-7.19-.06-9.7.657-10.429,10.268-10.429h12.88V47.4H221.123v6.5c3.881,0,7.743-.013,11.605,0,5.137.021,7.139,1.968,7.2,6.962.134,10.55-.55,11.241-11.126,11.241H215.458V66.617Z" transform="translate(-44.607 -8.67)" fill="#29333d"/>
    <path id="Path_72" data-name="Path 72" d="M374.075,71.922H368.99V47.674H353.185V71.822h-5.34V42.1h5c.124.865.254,1.756.469,3.241,2.58-4.272,6.442-3.5,10.054-3.5,10.808-.018,11.135.311,11.122,11.136-.007,6.08-.048,12.161-.088,18.242,0,.182-.162.364-.324.7" transform="translate(-72.07 -8.658)" fill="#29333d"/>
    <rect id="Rectangle_18" data-name="Rectangle 18" width="7.183" height="31.696" transform="translate(341.899 32.341)" fill="#29333d"/>
    <rect id="Rectangle_19" data-name="Rectangle 19" width="5.119" height="29.893" transform="translate(159.516 33.396)" fill="#29333d"/>
    <rect id="Rectangle_20" data-name="Rectangle 20" width="5.091" height="29.894" transform="translate(231.144 33.304)" fill="#29333d"/>
    <path id="Path_73" data-name="Path 73" d="M438.552,33.24h-7.506c0-2.408,0-4.662,0-6.918,6.934-2.313,8.746-.711,7.506,6.918" transform="translate(-89.309 -5.251)" fill="#29333d"/>
    <path id="Path_74" data-name="Path 74" d="M200.862,27.1h5.417v5.194c-5.676,1.355-6.513.606-5.417-5.194" transform="translate(-41.531 -5.615)" fill="#29333d"/>
    <path id="Path_75" data-name="Path 75" d="M290.63,27.153h6.407c-.258,1.935,0,4.019-.907,5.269-.536.742-3.647.793-4.28.046-.978-1.154-.825-3.256-1.221-5.315" transform="translate(-60.216 -5.626)" fill="#29333d"/>
  </g>
</svg>
