<svg xmlns="http://www.w3.org/2000/svg" xmlns:xlink="http://www.w3.org/1999/xlink" width="377.411" height="93.404" viewBox="0 0 377.411 93.404">
  <defs>
    <clipPath id="clip-path">
      <rect id="Rectangle_8" data-name="Rectangle 8" width="377.411" height="93.404" fill="none"/>
    </clipPath>
  </defs>
  <g id="wonderuniverselogo" transform="translate(0 0)">
    <g id="Group_9" data-name="Group 9" transform="translate(0 0)" clip-path="url(#clip-path)">
      <path id="Path_6" data-name="Path 6" d="M108.232,15.036A13.746,13.746,0,0,0,84.8,5.28l-2.92,2.677A46.7,46.7,0,0,0,11.011,59.808L3.99,67.468a13.746,13.746,0,0,0,19.476,19.4l3.493-3.493A46.691,46.691,0,0,0,99.33,29.688l4.875-4.932a13.658,13.658,0,0,0,4.026-9.72m-87.99,68.61A9.185,9.185,0,1,1,7.251,70.656l5.483-5.983a46.889,46.889,0,0,0,10.779,15.7ZM97.979,46.7A42.19,42.19,0,0,1,57.528,88.806L84.8,60.914l-3.26-3.188L51.348,88.6a41.927,41.927,0,0,1-21.14-8.474L61.64,48.7l-3.224-3.224-31.68,31.68A42.057,42.057,0,0,1,13.979,51.572L41.74,23.951l-3.216-3.232L13.718,45.4a42.137,42.137,0,0,1,80.2-16.727L55.165,67.883l3.242,3.206L95.786,33.274A41.976,41.976,0,0,1,97.979,46.7m2.994-25.16L97.31,25.246A47.024,47.024,0,0,0,85.6,10.737l2.321-2.128.072-.068a9.186,9.186,0,1,1,12.981,13" transform="translate(0 0)" fill="#29333d"/>
      <rect id="Rectangle_6" data-name="Rectangle 6" width="55.67" height="4.56" transform="translate(28.363 53.157) rotate(-44.685)" fill="#29333d"/>
      <rect id="Rectangle_7" data-name="Rectangle 7" width="17.438" height="4.561" transform="matrix(0.695, -0.719, 0.719, 0.695, 69.42, 36.54)" fill="#29333d"/>
      <path id="Path_7" data-name="Path 7" d="M138.3,6.741a3.145,3.145,0,0,1-.211-1.1,2.658,2.658,0,0,1,5.247-.686l6.813,22.01,6.686-21.92a2.8,2.8,0,0,1,2.623-2.242h.381a2.762,2.762,0,0,1,2.624,2.242l6.686,21.92L175.964,4.91A2.687,2.687,0,0,1,178.5,2.9a2.649,2.649,0,0,1,2.581,2.7,3.465,3.465,0,0,1-.253,1.145l-8.76,26.54a2.952,2.952,0,0,1-2.708,2.333h-.508a2.858,2.858,0,0,1-2.665-2.333l-6.6-20.91-6.6,20.91a2.9,2.9,0,0,1-2.708,2.333h-.508c-1.27,0-2.2-.869-2.708-2.333Z" transform="translate(-8.941 -0.181)" fill="#29333d"/>
      <path id="Path_8" data-name="Path 8" d="M198.177,19.217v-.092c0-9.014,6.433-16.565,15.531-16.565s15.445,7.459,15.445,16.473v.093c0,9.014-6.432,16.563-15.53,16.563s-15.446-7.458-15.446-16.472m25.517,0v-.092c0-6.223-4.189-11.394-10.071-11.394s-9.986,5.079-9.986,11.3v.093c0,6.223,4.188,11.347,10.071,11.347s9.986-5.034,9.986-11.256" transform="translate(-12.831 -0.165)" fill="#29333d"/>
      <path id="Path_9" data-name="Path 9" d="M247.365,5.785a2.722,2.722,0,0,1,2.623-2.837h.55A3.23,3.23,0,0,1,253.246,4.6l14.811,20.729V5.649a2.567,2.567,0,1,1,5.12,0v26.9a2.641,2.641,0,0,1-2.539,2.791h-.211a3.237,3.237,0,0,1-2.708-1.692L252.485,12.328V32.645a2.566,2.566,0,1,1-5.12,0Z" transform="translate(-16.016 -0.188)" fill="#29333d"/>
      <path id="Path_10" data-name="Path 10" d="M292.206,5.985a2.7,2.7,0,0,1,2.624-2.838h8.42c9.31,0,15.741,6.91,15.741,15.924v.093c0,9.014-6.432,16.015-15.741,16.015h-8.42a2.7,2.7,0,0,1-2.624-2.838Zm11.044,24.07c6.22,0,10.283-4.531,10.283-10.8v-.092c0-6.27-4.063-10.89-10.283-10.89h-5.84V30.054Z" transform="translate(-18.92 -0.203)" fill="#29333d"/>
      <path id="Path_11" data-name="Path 11" d="M337.21,32.341V5.984a2.694,2.694,0,0,1,2.623-2.837h17.222a2.45,2.45,0,0,1,2.328,2.518,2.42,2.42,0,0,1-2.328,2.516h-14.64v8.327h12.737a2.462,2.462,0,0,1,2.327,2.563,2.407,2.407,0,0,1-2.327,2.471H342.415v8.6h14.853a2.45,2.45,0,0,1,2.327,2.517,2.42,2.42,0,0,1-2.327,2.518H339.833a2.694,2.694,0,0,1-2.623-2.838" transform="translate(-21.833 -0.203)" fill="#29333d"/>
      <path id="Path_12" data-name="Path 12" d="M377.66,5.985a2.7,2.7,0,0,1,2.623-2.838h10.579c3.724,0,6.643,1.19,8.547,3.2a10.13,10.13,0,0,1,2.454,6.91v.092c0,5.125-2.75,8.237-6.727,9.564l5.67,7.734a3.4,3.4,0,0,1,.846,2.15,2.551,2.551,0,0,1-2.5,2.608,2.923,2.923,0,0,1-2.538-1.465l-7.194-9.93h-6.559v8.6a2.609,2.609,0,1,1-5.2,0Zm12.821,13.041c3.723,0,6.093-2.105,6.093-5.353v-.092c0-3.431-2.286-5.308-6.135-5.308h-7.575V19.026Z" transform="translate(-24.452 -0.203)" fill="#29333d"/>
      <path id="Path_13" data-name="Path 13" d="M142.9,61.319V48.431a2.118,2.118,0,1,1,4.225,0v12.7c0,4.828,2.3,7.39,6.079,7.39,3.745,0,6.045-2.414,6.045-7.205V48.431a2.117,2.117,0,1,1,4.225,0V61.1c0,7.764-4.052,11.663-10.338,11.663-6.251,0-10.235-3.9-10.235-11.44" transform="translate(-9.252 -2.989)" fill="#29333d"/>
      <path id="Path_14" data-name="Path 14" d="M181.413,48.505a2.21,2.21,0,0,1,2.13-2.3h.446a2.623,2.623,0,0,1,2.2,1.337l12.022,16.825V48.394a2.083,2.083,0,1,1,4.156,0V70.233A2.144,2.144,0,0,1,200.3,72.5h-.171a2.63,2.63,0,0,1-2.2-1.373L185.568,53.817v16.49a2.083,2.083,0,1,1-4.155,0Z" transform="translate(-11.746 -2.989)" fill="#29333d"/>
      <path id="Path_15" data-name="Path 15" d="M220.33,48.431a2.117,2.117,0,1,1,4.225,0v21.84a2.117,2.117,0,1,1-4.225,0Z" transform="translate(-14.266 -2.989)" fill="#29333d"/>
      <path id="Path_16" data-name="Path 16" d="M248.942,70.865l-8.414-21.394a2.713,2.713,0,0,1-.241-1.077,2.168,2.168,0,0,1,2.131-2.229A2.229,2.229,0,0,1,244.58,47.8l6.939,18.757,7.041-18.905a2.192,2.192,0,0,1,2.027-1.486,2.128,2.128,0,0,1,2.095,2.191,2.816,2.816,0,0,1-.206.966l-8.449,21.543a2.538,2.538,0,0,1-2.439,1.856h-.24a2.529,2.529,0,0,1-2.4-1.856" transform="translate(-15.558 -2.989)" fill="#29333d"/>
      <path id="Path_17" data-name="Path 17" d="M279.1,70.059V48.667a2.188,2.188,0,0,1,2.13-2.3H295.2a1.989,1.989,0,0,1,1.889,2.044,1.963,1.963,0,0,1-1.889,2.042H283.321v6.761h10.338a2,2,0,0,1,1.889,2.079,1.954,1.954,0,0,1-1.889,2.006H283.321v6.984h12.055a1.987,1.987,0,0,1,1.889,2.042,1.964,1.964,0,0,1-1.889,2.044h-14.15a2.187,2.187,0,0,1-2.13-2.3" transform="translate(-18.071 -3.002)" fill="#29333d"/>
      <path id="Path_18" data-name="Path 18" d="M314.1,48.668a2.187,2.187,0,0,1,2.129-2.3h8.587a9.262,9.262,0,0,1,6.938,2.6,8.223,8.223,0,0,1,1.991,5.609v.074a7.616,7.616,0,0,1-5.46,7.764l4.6,6.276a2.76,2.76,0,0,1,.687,1.745,2.07,2.07,0,0,1-2.027,2.117,2.373,2.373,0,0,1-2.06-1.189l-5.839-8.06h-5.324v6.984a2.117,2.117,0,1,1-4.224,0ZM324.5,59.253c3.023,0,4.946-1.709,4.946-4.345v-.076c0-2.784-1.855-4.307-4.98-4.307h-6.148v8.728Z" transform="translate(-20.337 -3.002)" fill="#29333d"/>
      <path id="Path_19" data-name="Path 19" d="M349.092,69.44a2.2,2.2,0,0,1-.824-1.745,2.044,2.044,0,0,1,1.992-2.116,1.854,1.854,0,0,1,1.236.409,9.973,9.973,0,0,0,6.732,2.673c2.61,0,4.259-1.337,4.259-3.269v-.073c0-1.858-.962-2.861-5.427-3.974-5.118-1.337-8-2.972-8-7.764v-.074c0-4.456,3.434-7.54,8.21-7.54a12.521,12.521,0,0,1,7.625,2.415,2.1,2.1,0,0,1,.926,1.82,2.045,2.045,0,0,1-1.992,2.116,1.92,1.92,0,0,1-1.1-.334,9.5,9.5,0,0,0-5.53-1.969c-2.474,0-3.916,1.374-3.916,3.083v.076c0,2,1.1,2.9,5.736,4.086,5.083,1.336,7.694,3.305,7.694,7.613v.075c0,4.864-3.538,7.762-8.588,7.762a14.24,14.24,0,0,1-9.033-3.269" transform="translate(-22.549 -2.976)" fill="#29333d"/>
      <path id="Path_20" data-name="Path 20" d="M384.113,70.059V48.667a2.187,2.187,0,0,1,2.129-2.3h13.979a1.989,1.989,0,0,1,1.889,2.044,1.963,1.963,0,0,1-1.889,2.042H388.338v6.761h10.338a2,2,0,0,1,1.889,2.079,1.954,1.954,0,0,1-1.889,2.006H388.338v6.984h12.055a1.987,1.987,0,0,1,1.889,2.042,1.964,1.964,0,0,1-1.889,2.044H386.242a2.187,2.187,0,0,1-2.129-2.3" transform="translate(-24.87 -3.002)" fill="#29333d"/>
      <path id="Path_21" data-name="Path 21" d="M143.844,93.077l3.7-8.93a1.115,1.115,0,0,1,1.054-.77h.085a1.1,1.1,0,0,1,1.039.77l3.7,8.93a.87.87,0,0,1,.1.4.857.857,0,0,1-.826.907.911.911,0,0,1-.855-.661l-.811-2.017h-4.841l-.841,2.079a.845.845,0,0,1-.812.6.836.836,0,0,1-.811-.877,1.032,1.032,0,0,1,.113-.431m6.522-3.048-1.753-4.357-1.751,4.357Z" transform="translate(-9.306 -5.398)" fill="#29333d"/>
      <path id="Path_22" data-name="Path 22" d="M167.86,88.948v-.03A5.265,5.265,0,0,1,173,83.344a4.979,4.979,0,0,1,3.417,1.217.971.971,0,0,1,.341.754.887.887,0,0,1-.869.925.817.817,0,0,1-.527-.186,3.465,3.465,0,0,0-2.377-.97,3.518,3.518,0,0,0-3.289,3.8v.031c0,2.109,1.381,3.819,3.289,3.819a3.429,3.429,0,0,0,2.492-1.033.758.758,0,0,1,.526-.215.867.867,0,0,1,.826.877.941.941,0,0,1-.284.678,4.886,4.886,0,0,1-3.617,1.447,5.234,5.234,0,0,1-5.069-5.543" transform="translate(-10.868 -5.396)" fill="#29333d"/>
      <path id="Path_23" data-name="Path 23" d="M182.784,84.4a.878.878,0,1,1,1.752,0v3.618h4.756V84.4a.878.878,0,1,1,1.751,0v9.053a.878.878,0,1,1-1.751,0v-3.68h-4.756v3.68a.878.878,0,1,1-1.752,0Z" transform="translate(-11.835 -5.403)" fill="#29333d"/>
      <path id="Path_24" data-name="Path 24" d="M198.482,84.4a.878.878,0,1,1,1.751,0v9.053a.878.878,0,1,1-1.751,0Z" transform="translate(-12.851 -5.403)" fill="#29333d"/>
      <path id="Path_25" data-name="Path 25" d="M206.538,84.4a.878.878,0,1,1,1.751,0V92.59H212.8a.865.865,0,0,1,0,1.725H207.42a.907.907,0,0,1-.882-.955Z" transform="translate(-13.373 -5.403)" fill="#29333d"/>
      <path id="Path_26" data-name="Path 26" d="M220.029,84.5a.907.907,0,0,1,.882-.955h2.834a5.159,5.159,0,0,1,5.3,5.359v.031a5.183,5.183,0,0,1-5.3,5.389h-2.834a.906.906,0,0,1-.882-.955Zm3.716,8.1a3.382,3.382,0,0,0,3.46-3.634v-.03a3.407,3.407,0,0,0-3.46-3.664H221.78V92.6Z" transform="translate(-14.246 -5.409)" fill="#29333d"/>
      <path id="Path_27" data-name="Path 27" d="M235.326,84.5a.907.907,0,0,1,.883-.955h3.56a3.843,3.843,0,0,1,2.876,1.077,3.413,3.413,0,0,1,.826,2.326v.031a3.155,3.155,0,0,1-2.263,3.217l1.908,2.6a1.148,1.148,0,0,1,.285.723.858.858,0,0,1-.841.878.982.982,0,0,1-.854-.493l-2.42-3.341h-2.207v2.895a.878.878,0,1,1-1.752,0Zm4.314,4.388a1.811,1.811,0,0,0,2.05-1.8v-.031c0-1.154-.769-1.785-2.064-1.785h-2.549v3.618Z" transform="translate(-15.237 -5.409)" fill="#29333d"/>
      <path id="Path_28" data-name="Path 28" d="M249.93,93.365V84.5a.907.907,0,0,1,.883-.955h5.795a.825.825,0,0,1,.784.847.815.815,0,0,1-.784.847h-4.926v2.8h4.285a.828.828,0,0,1,.783.862.809.809,0,0,1-.783.83h-4.285v2.9h5a.824.824,0,0,1,.784.846.815.815,0,0,1-.784.847h-5.866a.907.907,0,0,1-.883-.955" transform="translate(-16.182 -5.409)" fill="#29333d"/>
      <path id="Path_29" data-name="Path 29" d="M264.231,84.429a.916.916,0,0,1,.883-.955h.185a1.089,1.089,0,0,1,.911.555L271.194,91V84.383a.864.864,0,1,1,1.723,0v9.053a.889.889,0,0,1-.854.939h-.072a1.088,1.088,0,0,1-.911-.57l-5.126-7.175v6.837a.863.863,0,1,1-1.723,0Z" transform="translate(-17.108 -5.403)" fill="#29333d"/>
      <path id="Path_30" data-name="Path 30" d="M279.365,87.031a1.3,1.3,0,0,0,.968-1.385,1.069,1.069,0,0,1-.812-1.033V84.49a.963.963,0,0,1,.969-1.031c.626,0,1.025.523,1.025,1.355v.153a3.183,3.183,0,0,1-.7,2.247,2.013,2.013,0,0,1-1.338.662.4.4,0,0,1-.442-.431.434.434,0,0,1,.328-.415" transform="translate(-18.067 -5.403)" fill="#29333d"/>
      <path id="Path_31" data-name="Path 31" d="M287.288,93.107a.911.911,0,0,1-.341-.723.848.848,0,0,1,.826-.878.772.772,0,0,1,.513.169,4.13,4.13,0,0,0,2.791,1.108c1.082,0,1.765-.554,1.765-1.354V91.4c0-.77-.4-1.186-2.249-1.648-2.121-.555-3.317-1.232-3.317-3.217V86.5a3.14,3.14,0,0,1,3.4-3.126,5.188,5.188,0,0,1,3.16,1,.869.869,0,0,1,.384.755.848.848,0,0,1-.826.877.8.8,0,0,1-.455-.138,3.94,3.94,0,0,0-2.292-.816c-1.025,0-1.624.57-1.624,1.278v.031c0,.831.455,1.2,2.377,1.695,2.108.554,3.19,1.369,3.19,3.156v.03c0,2.017-1.466,3.218-3.56,3.218a5.9,5.9,0,0,1-3.745-1.355" transform="translate(-18.579 -5.398)" fill="#29333d"/>
      <path id="Path_32" data-name="Path 32" d="M317.371,84.43a.916.916,0,0,1,.883-.955h.185a.915.915,0,0,1,.812.508l3.018,5.112,3.033-5.127a.871.871,0,0,1,.8-.493h.184a.916.916,0,0,1,.883.955v9.022a.9.9,0,0,1-.883.939.919.919,0,0,1-.868-.939V86.986l-2.434,3.957a.793.793,0,0,1-1.467,0l-2.42-3.926v6.451a.886.886,0,0,1-.869.923.874.874,0,0,1-.854-.923Z" transform="translate(-20.549 -5.404)" fill="#29333d"/>
      <path id="Path_33" data-name="Path 33" d="M333.961,89.741V84.4a.878.878,0,1,1,1.752,0v5.265c0,2,.954,3.064,2.52,3.064s2.506-1,2.506-2.987V84.4a.878.878,0,1,1,1.751,0v5.25c0,3.219-1.68,4.835-4.285,4.835s-4.243-1.616-4.243-4.743" transform="translate(-21.623 -5.403)" fill="#29333d"/>
      <path id="Path_34" data-name="Path 34" d="M349.519,93.107a.911.911,0,0,1-.341-.723.847.847,0,0,1,.826-.878.772.772,0,0,1,.513.169,4.13,4.13,0,0,0,2.791,1.108c1.082,0,1.765-.554,1.765-1.354V91.4c0-.77-.4-1.186-2.249-1.648-2.121-.555-3.318-1.232-3.318-3.217V86.5a3.141,3.141,0,0,1,3.4-3.126,5.188,5.188,0,0,1,3.16,1,.869.869,0,0,1,.384.755.848.848,0,0,1-.826.877.8.8,0,0,1-.455-.138,3.94,3.94,0,0,0-2.292-.816c-1.025,0-1.624.57-1.624,1.278v.031c0,.831.455,1.2,2.377,1.695,2.108.554,3.19,1.369,3.19,3.156v.03c0,2.017-1.466,3.218-3.56,3.218a5.9,5.9,0,0,1-3.745-1.355" transform="translate(-22.608 -5.398)" fill="#29333d"/>
      <path id="Path_35" data-name="Path 35" d="M362.974,93.365V84.5a.907.907,0,0,1,.883-.955h5.795a.824.824,0,0,1,.783.847.814.814,0,0,1-.783.847h-4.926v2.8h4.285a.828.828,0,0,1,.783.862.809.809,0,0,1-.783.83h-4.285v2.9h5a.823.823,0,0,1,.783.846.815.815,0,0,1-.783.847h-5.866a.907.907,0,0,1-.883-.955" transform="translate(-23.502 -5.409)" fill="#29333d"/>
      <path id="Path_36" data-name="Path 36" d="M376.636,89.741V84.4a.878.878,0,1,1,1.752,0v5.265c0,2,.954,3.064,2.52,3.064s2.506-1,2.506-2.987V84.4a.878.878,0,1,1,1.751,0v5.25c0,3.219-1.68,4.835-4.285,4.835s-4.243-1.616-4.243-4.743" transform="translate(-24.386 -5.403)" fill="#29333d"/>
      <path id="Path_37" data-name="Path 37" d="M392.647,84.43a.916.916,0,0,1,.883-.955h.185a.913.913,0,0,1,.811.508l3.019,5.112,3.032-5.127a.872.872,0,0,1,.8-.493h.185a.916.916,0,0,1,.883.955v9.022a.9.9,0,0,1-.883.939.919.919,0,0,1-.868-.939V86.986l-2.434,3.957a.793.793,0,0,1-1.467,0l-2.42-3.926v6.451a.886.886,0,0,1-.869.923.874.874,0,0,1-.854-.923Z" transform="translate(-25.423 -5.404)" fill="#29333d"/>
    </g>
  </g>
</svg>
